<svg width="160" height="40" viewBox="0 0 160 40" fill="none" xmlns="http://www.w3.org/2000/svg">
<path fill-rule="evenodd" clip-rule="evenodd" d="M104.156 13.3333C105.195 13.3333 105.974 13.0769 106.494 12.3077C107.273 11.5385 107.533 10.7692 107.533 9.99999C107.533 9.23076 107.273 8.46153 106.494 7.6923C105.714 6.92307 104.935 6.66666 104.156 6.66666C103.117 6.66666 102.338 6.92307 101.818 7.6923C101.039 8.20512 100.779 8.97435 100.779 9.99999C100.779 10.7692 101.039 11.7949 101.818 12.3077C102.338 12.8205 103.377 13.3333 104.156 13.3333Z" fill="white"/>
<path fill-rule="evenodd" clip-rule="evenodd" d="M53.247 36.6666C50.9093 38.7179 48.0522 39.7435 44.4158 39.7435C40.7794 39.7435 37.9223 38.7179 35.5846 36.6666C33.247 34.6153 32.208 31.7948 32.208 28.4615V7.17946H37.6626V28.2051C37.6626 30.2564 38.182 31.7948 39.4807 32.8205C40.7794 34.1025 42.3379 34.6153 44.6755 34.6153C47.0132 34.6153 48.8314 34.1025 49.8703 32.8205C51.169 31.5384 51.6885 30 51.6885 28.2051V7.17946H57.1431V28.4615C56.6236 32.0512 55.5846 34.6153 53.247 36.6666Z" fill="white"/>
<path fill-rule="evenodd" clip-rule="evenodd" d="M87.5326 15.6411C90.13 15.6411 92.2079 16.4103 93.7664 18.2052C95.3248 20 96.104 22.0513 96.104 24.8718V38.9744H91.169V25.3847C91.169 23.8462 90.6495 22.5642 89.8703 21.7949C89.0911 21.0257 88.0521 20.5129 86.4937 20.5129C84.9352 20.5129 83.6365 21.0257 82.8573 22.0513C82.0781 23.077 81.5586 24.6154 81.5586 26.6667V39.4872H76.6235V25.3847C76.6235 23.8462 76.3638 22.5642 75.5846 21.7949C74.8054 21.0257 73.7664 20.5129 72.4677 20.5129C70.9093 20.5129 69.6105 21.0257 68.8313 22.0513C67.7924 23.077 67.2729 24.6154 67.2729 26.4103V39.2308H62.3378V16.4103H67.2729V19.2308C68.8313 16.9231 70.9093 15.8975 73.7664 15.8975C76.6235 15.8975 78.9612 17.1795 80.2599 19.4872C82.0781 16.9231 84.4157 15.6411 87.5326 15.6411Z" fill="white"/>
<path d="M106.494 16.4102H101.559V39.2307H106.494V16.4102Z" fill="white"/>
<path fill-rule="evenodd" clip-rule="evenodd" d="M123.377 39.7436C120 39.7436 116.883 38.4616 114.546 36.1539C112.208 33.8462 111.169 31.0257 111.169 27.6924C111.169 24.359 112.208 21.5385 114.546 19.2308C116.883 16.9231 119.74 15.6411 123.377 15.6411C125.714 15.6411 127.792 16.1539 129.611 17.1795C131.429 18.2052 132.727 19.7436 133.766 21.5385L129.351 24.1026C128.831 23.077 128.052 22.0513 127.013 21.5385C125.974 21.0257 124.675 20.5129 123.377 20.5129C121.299 20.5129 119.74 21.2821 118.182 22.5642C116.883 23.8462 116.104 25.6411 116.104 27.6924C116.104 29.7436 116.883 31.5385 118.182 32.8206C119.481 34.1026 121.299 34.8718 123.377 34.8718C124.675 34.8718 125.974 34.6154 127.013 33.8462C128.052 33.3334 128.831 32.3077 129.611 31.2821L134.026 33.5898C132.987 35.3847 131.688 36.9231 129.87 37.9488C127.792 39.2308 125.714 39.7436 123.377 39.7436Z" fill="white"/>
<path fill-rule="evenodd" clip-rule="evenodd" d="M139.221 36.4102C141.559 38.7179 144.416 40 147.792 40C151.169 40 154.026 38.7179 156.364 36.4102C158.701 34.1026 160 31.282 160 27.9487C160 24.6154 158.701 21.7949 156.364 19.4872C154.026 17.1795 151.169 15.8974 147.792 15.8974C144.416 15.8974 141.559 17.1795 139.221 19.4872C136.883 21.7949 135.585 24.6154 135.585 27.9487C135.585 31.282 136.883 34.1026 139.221 36.4102ZM148.052 34.8718C145.974 34.8718 144.416 34.1026 142.857 32.8205C141.559 31.5384 140.779 29.7436 140.779 27.6923C140.779 25.641 141.559 23.8461 142.857 22.5641C144.156 21.282 145.974 20.5128 148.052 20.5128C150.13 20.5128 151.688 21.282 153.247 22.5641C154.546 23.8461 155.325 25.641 155.325 27.6923C155.325 29.7436 154.546 31.5384 153.247 32.8205C151.688 34.359 149.87 34.8718 148.052 34.8718Z" fill="white"/>
<path fill-rule="evenodd" clip-rule="evenodd" d="M0.519481 0C10.1299 0.769231 15.5844 0.769231 24.9351 0C24.2484 6.7785 24.603 13.2752 25.4545 20H0C0.969959 13.2973 1.1063 6.7585 0.519481 0Z" fill="#F81A5D"/>
<path fill-rule="evenodd" clip-rule="evenodd" d="M12.7275 13.5898C15.5887 13.5898 17.9223 11.5941 17.9223 8.71799H15.5847C15.5847 10.513 14.4248 11.2821 12.7275 11.2821C11.2007 11.2821 9.8704 10.3338 9.8704 8.71799H7.79248C7.79248 11.5747 9.79798 13.5898 12.7275 13.5898Z" fill="white"/>
</svg>
